<svg fill="none" height="24" viewBox="0 0 24 24" width="24" xmlns="http://www.w3.org/2000/svg"><g fill="#ffffff"><path d="m5.99976 22.7498c-.3 0-.62001-.03-.94001-.09-.17-.04-.32-.08-.47-.12-.17-.05-.33001-.11-.48001-.17-.04-.01-.06997-.03-.09997-.04-.35-.18-.65002-.36-.92002-.56-.02-.01-.02999-.03-.04999-.04-.15-.12-.29001-.24-.42001-.38-.14-.15-.24001-.27-.35001-.39-.23-.3-.41999-.6-.58999-.95-.02-.03-.02998-.07-.03998-.11-.06-.14-.11002-.28-.15002-.43-.06-.21-.10001-.35-.13001-.5-.07-.35-.09997-.66-.09997-.96v-13.50003c0-1.91 1.34-3.25 3.25-3.25h3c1.91 0 3.25003 1.34 3.25003 3.25v13.49003c0 1.24-.48 2.42-1.35004 3.31-.16.16-.28001.27-.39002.36-.32.28-.72998.53-1.16998.71-.1.04-.22.09-.35.14-.49.15-1 .23-1.5.23zm-1.26001-1.75c.1.04.20001.07.30001.1.11.03.21999.06.32999.09.55.1 1.14002.07 1.61002-.09.07-.03.16998-.06.25998-.1.32-.13.57999-.29.80999-.48.1-.08.17002-.15.24002-.21.63-.65.96-1.45.96-2.3v-13.50003c0-1.08-.67-1.75-1.75-1.75h-3c-1.08 0-1.75.67-1.75 1.75v13.49003c0 .21.02.43.07.66.02.09.04999.2.07999.32.04.11.07002.2.11002.3.02.03.02997.06.03997.08s.02.05.03.07c.12.22.24003.41.37003.58.07.08.16.18.25.28.11.12.19999.19.29999.27.01.01.03.02.04.03.16.12.33999.23.54999.34.02.01.04.01.06.02s.05.03.09.05z"/><path d="m19.5 22.7498h-13.5c-.41 0-.75-.34-.75-.75s.34-.75.75-.75c.35 0 .69001-.05.98001-.15.07-.03.16998-.06.25998-.1.32-.13.58-.29.81-.48.1-.08.17002-.15.24002-.21l6.83999-6.83c.14-.14.33-.22.53-.22h3.84c1.91 0 3.25 1.34 3.25 3.25v3c0 1.9-1.34 3.24-3.25 3.24zm-10.04001-1.5h10.04001c1.08 0 1.75-.67 1.75-1.75v-3c0-1.08-.67-1.75-1.75-1.75h-3.53z"/><path d="m4.8102 22.57c-.07 0-.13999-.01-.20999-.03-.74-.22-1.41999-.63-1.95999-1.18-.54-.53-.95002-1.21-1.17002-1.95-.12-.4.1-.81.5-.93s.81001.1.94001.49c.32 1.02 1.11998 1.82 2.13998 2.14.39.12.61002.54.49002.94-.11.31-.41001.52-.73001.52z"/><path d="m8.85997 21.5399c-.19 0-.37999-.07-.52999-.22-.29-.29-.29998-.76-.00998-1.06.6-.61.92999-1.42.92999-2.27v-9.65997c0-.2.08-.39.22-.53l2.71001-2.71001c1.31-1.31 3.29-1.31 4.6 0l2.12 2.12001c1.35 1.35 1.35 3.24997 0 4.59997l-9.51 9.5c-.15.16-.34003.23-.53003.23zm1.89003-12.88998v9.18998l7.09-7.08c.76-.75998.76-1.70998 0-2.47998l-2.12-2.11999c-.75-.75-1.73-.75-2.48 0z"/><path d="m6 19.75c-.96 0-1.75-.79-1.75-1.75s.79-1.75 1.75-1.75 1.75.79 1.75 1.75-.79 1.75-1.75 1.75zm0-2c-.14 0-.25.11-.25.25 0 .28.5.28.5 0 0-.14-.11-.25-.25-.25z"/></g></svg>